<?xml version='1.0' encoding='utf-8'?>
<svg xmlns="http://www.w3.org/2000/svg" version="1.1" id="Layer_1" x="0px" y="0px" viewBox="0 0 4869.609 5000" enable-background="new 0 0 4869.609 5000"> <g transform="translate(864.638 9.32397)"> <path d="M1731.359,4985.626c-32.862-12.987-44.79-54.811-22.951-80.473c43.455-51.061,133.866-13.66,109.272,45.204 C1803.567,4984.134,1766.207,4999.399,1731.359,4985.626z M1810.32,4878.49c-27.04-11.825-30.113-79.207-4.381-96.067 c36.296-23.782,86.834,6.602,86.834,52.206C1892.773,4912.256,1803.696,4878.49,1810.32,4878.49z M1662.725,4872.964 c-41.778-41.778,8.043-115.447,67.348-99.585c36.233,9.691,53.663,57.148,28.622,77.93 C1734.587,4871.317,1674.612,4884.851,1662.725,4872.964L1662.725,4872.964z M1895.216,4785.435 c-14.143-15.628-40.054-29.369-55.38-29.369c-28.628,0-26.738-48.137,2.854-72.696c19.281-16.002,84.165-0.472,98.33,23.537 C1970.468,4756.817,1930.825,4824.783,1895.216,4785.435z M1498.788,4746.474c-73.712-36.913-39.955-146.317,37.187-120.519 c58.048,19.414,83.309,94.772,39.471,117.749C1548.263,4757.951,1505.246,4752.932,1498.788,4746.474z M1624.463,4629.259 c43.337-58.881,112.398-36,112.398,37.239c0,46.291-67.869,80.674-102.817,52.089 C1623.208,4718.587,1604.83,4655.934,1624.463,4629.259z M1982.816,4718.948c-57.956-21.439-29.879-130.786,33.582-130.786 c49.64,0,80.028,84.001,42.781,118.256C2044.775,4719.664,2003.195,4726.486,1982.816,4718.948L1982.816,4718.948z M301.725,4634.304c-52.673-94.98-50.864-119.131-76.542-176.01c-119.67-265.082-199.247-645.704-153.256-569.309 c21.428,35.593,39.711,31.801,69.786,132.499c52.775,176.705,189.789,338.123,277.083,326.438 c27.346-3.66,41.634,13.816,18.541,22.678c-48.096,18.456-91.55,72.892-160.647,37.664c-37.911-19.328-38.772-8.687-1.499,18.544 c39.17,28.618,102.716,18.436,160.409-25.704c17.084-13.071,36.347-25.756,128.927-84.904 c464.5-296.762,809.487-265.734,881.516-360.168c23.38-30.653,36.539-24.908,63.533,27.734 c20.691,40.351,14.384,47.531-48.558,55.278c-152.729,18.8-427.421,101.428-572.675,172.262 c-70.392,34.327-138.765,72.938-203.795,116.614c-51.091,34.314-100.123,71.765-146.099,112.7 c-34.424,30.65-67.119,63.26-97.551,97.885c-19.038,21.662-36.764,44.425-54.474,67.171c-8.047,10.335-15.67,22.11-25.275,30.889 c-9.909,9.056-20.147,17.897-30.503,26.481C317.152,4674.231,306.525,4642.959,301.725,4634.304z M2128.869,4650.198 c-22.039-87.809,208.707,15.098,747.345-259.523c105.132-53.602,266.879-185.77,271.013-221.451 c2.557-22.072,24.204-24.711,33.597-4.096c8.944,19.63,19.206,19.623,19.206-0.012c0-104.899-573.108-128.179-938.467,12.599 c-148.822,57.343-387.832,227.701-407.82,290.679c-5.044,15.891-16.534,12.308-21.182-6.604 c-3.136-12.764-6.648-14.408-28.649-13.412c-29.552,1.338-33.793-9.72-8.584-22.385c38.375-19.28,102.848-63.587,135.42-93.064 c35.971-32.552,47.8-41.158,122.29-88.971c300.721-193.024,586.727-197.051,715.237-205.427 c79.261-5.166,951.174-6.846,971.448-1.872c35.707,8.76,15.962,20.737-40.766,24.727 c-170.474,11.992-308.084,94.675-323.677,95.155c-14.216,0.435-44.559,49.218-63.417,4.084 c-11.587-27.73-77.179-84.027-37.172-25.071c26.264,38.702,17.265,84.098-22.1,111.487c-10.769,7.492-33.495,26.166-50.503,41.498 c-173.527,156.415-607.755,322.619-961.512,368.028C2127.127,4671.129,2137.686,4667.832,2128.869,4650.198z M1834.833,4654.132 c-44.978-18.138-7.83-115.143,47.46-123.934c32.384-5.148,70.445,20.106,70.445,46.742 C1952.738,4637.942,1892.492,4677.384,1834.833,4654.132L1834.833,4654.132z M1341.086,4609.391 c-332.71-81.527-194.443-50.956-323.816-90.033c-97.766-29.532-329.813-143.312-329.813-161.719 c0-5.904,45.089-33.328,54.796-33.328c33.564,0,256.951,146.698,675.722,225.963c41.243,7.807,52.869,32.533,26.457,56.268 C1421.232,4627.392,1415.226,4627.558,1341.086,4609.391L1341.086,4609.391z M1550.738,4604.652 c-58.194-29.346-43.913-112.436,19.325-112.436c63.076,0,92.32,62.526,48.945,104.652 C1593.299,4621.835,1586.379,4622.625,1550.738,4604.652L1550.738,4604.652z M1701.789,4512.923 c3.202-16.625,125.021-96.906,125.021-17.044c0,16.13,2.277,15.39-52.47,17.065 C1705.892,4515.038,1698.455,4530.234,1701.789,4512.923L1701.789,4512.923z M385.75,4145.26 c24.167-278.692,30.984-391.719-108.666-837.373c-16.942-54.067-54.534-154.625-85.656-229.131 c-50.829-121.684-32.539-160.677,22.842-48.698c89.797,181.569,223.543,598.451,250.737,781.542 c36.365,244.841,68.454,347.216,129.355,412.696c23.058,24.792,22.852,29.828-1.729,42.328 c-35.462,18.033-37.035,17.473-109.058-38.842C483.441,4228.386,419.25,4178.457,385.75,4145.26z M254.13,4025.981 C26.933,3795.813-104.091,3580.5-104.091,3571.916c0-3.279-176.647-297.058-265.839-641.812 c-61.689-238.446-77.648-329.566-58.769-335.558c70.111-22.252,43.764,84.899,126.769,383.531 c37.509,134.948,108.927,296.831,167.329,422.76c41.133,88.694,138.496,240.155,239.163,372.051 c168.031,220.157,239.608,225.358,243.966,17.728c0.865-41.227,1.922-79.679,2.348-85.451c0.881-11.928,10.423-14.431,11.429-2.998 c0.363,4.123,3.438,33.131,6.834,64.463c11.501,106.127,4.744,293.48-11.692,324.191 C345.789,4112.602,329.609,4102.448,254.13,4025.981z M1571.925,4024.263c-105.054-200.65-400.012-290.662-613.975-553.851 c-160.44-197.351-276.487-444.572-276.487-482.983c0-11.94-24.732-56.713-40.797-73.855c-19.718-21.04-12.304-30.798,17.013-22.39 c28.064,8.049,27.352,8.288,35.777-12.051c4.098-9.894,11.172-17.99,15.719-17.99c9.221,0,10.504,5.356,8.702,36.328 c-1.286,22.104,29.608,124.106,53.473,176.551c73.843,162.275,79.329,158.146,127.914,239.747 c138.513,232.651,566.472,533.72,650.769,563.467c12.058,4.255,42.162,17.256,66.898,28.892 c51.996,24.459,289.747,91.333,308.784,95.498c66.684,14.59,53.442,29.139-25.005,27.473 C1808.961,4027.152,1690.907,4025.823,1571.925,4024.263z M1029.543,3965.717c-39.549-39.549-18.776-85.153,38.788-85.153 c30.794,0,33.875,1.324,44.773,19.246C1145.044,3952.329,1072.988,4009.161,1029.543,3965.717L1029.543,3965.717z M1168.809,3918.323c-57.94-11.192-38.851-109.72,21.258-109.72c47.094,0,64.363,87.589,21.151,107.277 C1184.355,3928.121,1168.809,3915.49,1168.809,3918.323z M1058.12,3850.682c-70.722-8.979-69.897-91.764,1.12-112.325 c61.512-17.809,95.073,25.009,62.785,80.104C1103.291,3850.426,1093.799,3855.211,1058.12,3850.682L1058.12,3850.682z M114.203,2796.001c68.816-318.25,2.681-517.624,11.264-526.209c2.377-2.377,40.29,55.466,40.29,61.469 c0,6.305,39.14,59.52,71.733,97.529c44.273,51.629,44.76,53.52,26.885,104.35c-69.878,198.706-136.496,437.38-158.173,566.687 c-60.004,357.926-13.99,598.47-46.923,557.364C59.279,3673.03-44.526,3530.075,114.203,2796.001z M624.305,2867.882 c-53.959-24.511-58.974-45.547-9.489-39.804c38.983,4.524,66.953-5.063,78.675-26.967 C724.508,2743.156,718.862,2910.836,624.305,2867.882L624.305,2867.882z M23.65,2769.763 c-96.034-145.198-152.254-211.396-200.148-235.666c-68.079-34.498,7.406-25.594,15.985-59.775 c10.042-40.011,18.61,12.188,60.772,63.641c82.952,101.236,177.048,245.05,174.5,266.703 C68.784,2855.443,27.127,2768.025,23.65,2769.763z M395.01,2715.722c21.698-31.317,94.562-9.823,94.562,27.894 c0,55.365-46.298,82.652-84.887,50.032C404.685,2787.189,355.383,2772.916,395.01,2715.722z M519.87,2786.517 c-19.384-20.633-13.458-52.888,11.626-63.278c9.704-4.02,20.763-11.066,24.574-15.658c27.744-33.429,64.619,24.856,44.272,69.977 C586.723,2807.759,544.266,2812.485,519.87,2786.517L519.87,2786.517z M680.551,2744.875 c-19.391-9.667-37.106-42.704-32.576-60.752c10.276-40.944,105.447-8.14,105.447,36.346 C753.422,2755.936,680.551,2752.611,680.551,2744.875z M793.56,2704.318c-19.78-11.07-39.853-56.141-35.941-80.702 c8.538-53.606,44.207-66.567,83.668-30.403C885.837,2634.041,843.616,2732.331,793.56,2704.318L793.56,2704.318z M471.121,2687.699 c-45.276-45.276,18.613-118.429,74.782-85.625c38.345,22.395,35.677,66.13-5.456,89.426 C508.522,2709.582,492.102,2708.681,471.121,2687.699L471.121,2687.699z M652.979,2638.603 c-18.905-19.504-1.515-79.021,26.163-89.545c57.124-21.718,92.001,38.348,48.111,82.859 C716.069,2643.26,662.193,2648.11,652.979,2638.603L652.979,2638.603z M-628.794,2466.758c42.966-7.348,41.363-8.121,60.17,28.992 c35.31,69.68-54.7,126.791-109.964,69.772C-688.041,2565.522-742.62,2486.225-628.794,2466.758z M491.88,2574.199 c-43.655-27.408-13.516-97.047,41.899-96.813c13.176,0.054,51.738,41.173,51.708,55.134 C585.4,2572.926,529.498,2597.816,491.88,2574.199L491.88,2574.199z M605.035,2451.883c33.782-41.353,93.707-14.171,86.543,39.256 c-5.62,41.908-45.438,69.677-71.517,49.876C605.315,2537.329,579.301,2483.384,605.035,2451.883z M-452.13,2510.895 c-52.999-29.965-29.754-93.504,34.207-93.504c34.931,0,46.216,9.673,53.443,45.809 C-356.709,2502.051-413.303,2532.847-452.13,2510.895L-452.13,2510.895z M-532.127,2509.093 c-35.515-35.298-17.497-109.691,26.566-109.691c18.639,0,23.194,10.082,10.356,22.92 C-508.473,2435.59-493.99,2546.998-532.127,2509.093L-532.127,2509.093z M-291.994,2482.51 c11.118-7.329,32.768-23.056,46.08-23.103c22.828-0.082,51.871-38.181,51.871-68.047c0-50.788,18.977-45.166,22.731,6.734 c4.266,58.973-6.36,85.26-34.465,85.26C-251.446,2483.354-223.204,2489.462-291.994,2482.51z M-333.268,2361.923 c22.264-25.51,65.716-0.576,71.28,40.902c5.864,43.718-50.677,82.456-76.771,52.598 C-338.76,2456.022-383.379,2419.337-333.268,2361.923z M489.883,2395.289c14.285-51.021,54.306-66.034,88.941-33.366 c46.191,43.567,6.437,112.354-54.735,94.707C530.419,2453.465,472.635,2456.894,489.883,2395.289z M-683.258,2426.12 c-27.092-64.84,29.162-121.696,69.486-70.231c7.123,9.091,21.464,20.585,31.869,25.543c38.758,18.467,13.481,59.883-36.636,60.028 C-673.429,2441.629-669.972,2457.916-683.258,2426.12L-683.258,2426.12z M-745.448,2332.648 c63.98-19.169,14.589,30.863,21.876,75.765C-708.598,2500.686-892.074,2376.578-745.448,2332.648z M248.948,2409.896 c-111.385-116.961-205.436-336.489-238.725-557.223c-32.591-216.094,3.366-516.28,70.429-587.976 c139.812-149.47-147.905,255.249,45.995,777.907c15.865,42.765,65.678,145.279,75.612,155.612 c11.599,12.064-5.173,22.673,26.067,35.727c54.858,22.921,31.821,92.88,45.373,84.505c15.182-9.383-2.107-98.944-19.1-98.944 c-9.126,0-4.937-22.081,6.08-32.052c55.201-49.957,106.245,92.794,68.282,190.961 C289.454,2480.575,258.778,2409.896,248.948,2409.896z M-459.718,2386.89c-29.391-17.5-23.55-59.448,8.278-59.448 c21.007,0,48.218-15.407,65.351-24.148l12.074,12.074C-335.833,2353.55-410.734,2416.057-459.718,2386.89L-459.718,2386.89z M-588.477,2348.091c-15.987-11.198-17.952-41.36-3.992-61.29c20.47-29.225,92.607-5.87,92.607,29.982 C-499.862,2353.104-554.007,2372.234-588.477,2348.091z M-230.016,2326.004c-24.373-12.737-12.472-88.51,13.901-88.51 c74.067,0,95.827,82.519,24.505,92.927C-221.69,2334.811-230.016,2324.083-230.016,2326.004z M-847.299,2316.949 c-54.599-44.232,31.533-137.717,95.395-103.538c11.901,6.369,22.081,56.288,15.626,76.627 C-744.66,2316.447-824.138,2335.713-847.299,2316.949L-847.299,2316.949z M-691.756,2304.205 c-24.564-7.025-22.82-83.786,2.176-95.766c23.207-11.123,43.435-0.462,47.937,25.263c1.808,10.33,4.995,27.031,7.081,37.113 C-624.918,2317.422-696.17,2306.412-691.756,2304.205z M-487.257,2283.102c-23.276-24.014-23.484-43.788-0.427-40.498 c64.859,9.256,75.883-5.384,72.822,22.266C-422.066,2329.919-487.257,2292.675-487.257,2283.102z M-345.108,2210.395 c6.533-5.582,20.467-17.959,30.964-27.504c33.221-30.21,61.748-19.878,67.977,24.621c9.104,65.039-41.884,101.7-85.485,61.465 C-331.03,2268.976-372.157,2233.505-345.108,2210.395z M-612.301,2248.686c-33.52-33.962,18.45-101.456,67.958-88.257 c46.067,12.281,36.193,89.058-11.454,89.058C-587.484,2249.487-591.191,2259.241-612.301,2248.686z M-447.932,2135.552 c50.84,0,71.703,40.49,37.381,72.552C-474.536,2267.875-538.095,2135.552-447.932,2135.552z M-200.036,2220.29 c-21.752-6.137-40.358-42.892-32.715-64.625c8.225-23.388,33.02-36.416,54.794-28.79 C-118.917,2147.552-140.105,2237.198-200.036,2220.29L-200.036,2220.29z M-373.703,2158.407 c-38.727-41.568,16.985-108.125,57.007-68.103c18.936,18.936,18.67,39.631-0.806,62.777 C-348.828,2190.31-373.092,2158.101-373.703,2158.407z M-481.755,2096.888c-16.306-42.888,35.049-82.406,78.134-60.127 c21.271,10.999,22.297,24.203,3.997,51.43C-418.589,2116.408-472.177,2122.082-481.755,2096.888L-481.755,2096.888z M-593.839,2091.116c-65.61-29.526-23.623-132.088,59.199-86.524C-469.376,2040.497-525.156,2122.024-593.839,2091.116 L-593.839,2091.116z M614.235,2047.811c-33.939-18.031-29.776-69.487,7.725-95.475c30.009-20.796,49.312-14.187,67.621,23.152 C713.231,2023.725,661.808,2073.085,614.235,2047.811L614.235,2047.811z M-359.294,2030.807 c-19.172-19.172-18.485-33.248,2.605-53.454c26.326-25.222,78.698-11.666,78.698,20.371 C-277.991,2034.365-333.25,2056.851-359.294,2030.807L-359.294,2030.807z M489.583,2025.631 c-48.787-16.308-52.526-64.071-7.703-98.406l19.29-14.777l29.715,29.099C585.952,1995.47,559.635,2049.047,489.583,2025.631 L489.583,2025.631z M-521.778,1987.853c-39.853-14.126-45.176-80.286-5.704-70.9c18.457,4.389,42.568,5.035,57.416,1.537 c11.999-2.826,27.9,58.427,18.201,70.114C-467.743,2007.736-521.178,1987.853-521.778,1987.853z M-655.775,1973.643 c-24.353-24.354-6.296-91.051,26.34-97.29c62.305-11.91,84.341,71.024,25.919,97.546 C-635.462,1988.402-641.043,1988.375-655.775,1973.643z M-416.213,1958.288c-18.944-22.826-14.833-72.857,7.084-86.218 c36.73-22.393,55.754-12.321,62.569,33.124C-340.296,1946.963-392.553,1986.797-416.213,1958.288L-416.213,1958.288z M-329.549,1874.071c10.632-27.706,64.629,27.613,88.713,27.613c14.708,0,14.03,20.776-1.174,35.979 c-14.426,14.426-45.891,15.783-64.456,2.779C-306.466,1948.38-338.012,1896.125-329.549,1874.071z M553.757,1926.917 c-29.233-29.938-28.187-34.636,10.2-45.795c72.109-20.963,103.146,13.63,47.086,52.48 C581.402,1954.143,580.206,1954.003,553.757,1926.917z M-211.632,1865.494c-56.686,30.338-114.082-33.668-66.269-73.9 c30.72-25.849,83.56-4.635,83.772,33.634c0.129,23.089-7.858,21.765,84.044-20.853c61.229-28.394,89.949-56.453,89.949-5.497 c0,23.298-0.456,23.758-53.272,53.788C-302.899,1983.148-166.11,1841.131-211.632,1865.494z M-531.915,1884.722 c-19.87-21.957-11.786-62.618,15.226-76.587c51.748-26.76,105.83,39.854,60.991,75.124 C-476.222,1899.404-517.903,1900.203-531.915,1884.722L-531.915,1884.722z M500.069,1859.228 c-33.88-19.733-29.923-82.379,6.068-96.062c59.195-22.506,108.821,20.119,87.652,75.286 C584.418,1862.872,519.266,1873.626,500.069,1859.228z M641.63,1859.759c-33.159-13.382-40.661-49.594-15.305-73.886 c27.223-26.081,60.816-21.517,72.755,9.884C717.764,1844.899,687.727,1878.361,641.63,1859.759L641.63,1859.759z M751.364,1841.068 c-11.273-6.701-27.922-39.891-27.922-55.664c0-33.481,69.421-59.631,92.018-34.662 C848.348,1787.085,792.634,1865.599,751.364,1841.068L751.364,1841.068z M-703.17,1822.141 c-51.836-26.64-35.192-94.518,25.595-104.383c31.331-5.084,73.266,35.613,67.523,65.53 C-617.578,1822.492-664.44,1842.045-703.17,1822.141L-703.17,1822.141z M380.799,1800.272 c-21.983-17.801-20.458-68.107,2.669-87.999c45.548-39.179,109.858,11.683,79.907,63.198 C428.993,1834.603,380.799,1805.89,380.799,1800.272z M-578.194,1787.374c-32.279-32.279,17.602-21.139,47.66-49.938 c22.673-21.722,30.688-19.93,30.578,6.837C-500.139,1789.152-549.323,1816.246-578.194,1787.374z M-459.387,1786.57 c-21.814-10.582-22.487-11.867-22.487-42.913c0-66.392,74.105-79.21,99.986-17.294 C-362.884,1771.827-411.661,1809.721-459.387,1786.57L-459.387,1786.57z M-353.01,1774.589 c-25.125-29.859-15.808-66.723,21.776-86.158c49.222-25.454,85.091,45.715,42.675,84.673 C-337.721,1818.257-347.261,1771.714-353.01,1774.589z M-229.731,1762.141c-22.496-11.385-35.61-58.295-22.073-78.956 c22.998-35.099,92.344-13.17,97.163,30.726C-149.626,1759.59-187.149,1783.69-229.731,1762.141L-229.731,1762.141z M680.462,1750.672c-53.797-14.324-56.586-71.127-4.918-100.166c43.348-24.363,0.58-57.879-51.534-40.385 c-42.93,14.411-47.005,17.803-39.111,32.554c36.831,68.819-54.478,138.296-97.104,73.886c-30.822-46.575-1.862-102,49.683-95.086 c16.07,2.156,25.793,0.501,30.518-5.191c37.549-45.244,137.453-59.688,137.453-19.873c0,34.296,98.853,67.956,25.481,144.867 c-17.066,17.889-17.952,18.054-50.47,9.396H680.462z M-645.924,1687.465c19.369-68.088,21.103-84.198,53.119-86.467 c73.172-5.186,106.771,58.986,56.962,108.795c-30.711,30.711-52.989,30.927-85.256,0.829 C-621.098,1711.224-621.697,1710.064-645.924,1687.465z M84.611,1714.15c-5.475-21.814,3.36-36.627,51.543-86.418 c157.224-162.47,244.791-339.613,255.602-517.065c6.881-112.949-28.543-135.238-109.9-69.147 c-444.828,361.362-448.496,643.602-529.964,593.253c-40.728-25.171,342.439-650.297,942.134-911.849 c183.457-80.013,181.862-86.628,233.891-62.259c42.706,20.003,39.155,26.137-27.573,47.626 c-53.951,17.374-91.685,33.685-167.905,63.24c-218.116,84.575-284.838,143.34-284.838,250.864 c0,222.824-110.438,470.872-290.699,652.921C81.375,1751.591,92.934,1722.474,84.611,1714.15z M-755.686,1686.776 c-48.724-44.502-15.917-120.901,51.917-120.901c60.588,0,66.762,108.324,7.328,128.575 C-732.595,1706.769-733.994,1706.588-755.686,1686.776L-755.686,1686.776z M-407.379,1673.299 c-21.461-23.714,38.016-59.54,64.929-39.11c16.42,12.465,12.483,24.306-12.81,38.521 C-384.252,1689.005-393.075,1689.104-407.379,1673.299z M-457.352,1635.12c-48.201-25.797-35.933-117.218,15.73-117.218 c45.794,0,76.823,70.223,42.899,97.087C-428.709,1638.734-442.044,1643.313-457.352,1635.12L-457.352,1635.12z M-339.023,1613.659 c-21.512-11.363-23.838-15.008-31.48-49.335c-12.151-54.58,57.41-75.449,88.539-26.563 C-247.117,1592.487-284.632,1642.389-339.023,1613.659L-339.023,1613.659z M708.324,1564.376 c-14.978-33.824-93.415,19.141-29.506-44.766c91.215-91.216,147.182-415.532,689.264-784.209 c247.593-168.39,176.357-208.077,203.047-230.228c10.693-8.874,374.223,1.503,383.673,10.953 c10.751,10.751-3.003,17.948-52.345,27.389c-208.053,39.807-644.182,253.715-922.306,597.305 c-98.281,121.412-227.357,338.219-245.025,411.564C723.544,1600.458,708.924,1564.476,708.324,1564.376z M3573.556,1164.376 c-38.775-18.835-49.639-57.884-24.212-87.027l13.492-15.464l32.981,12.122c49.914,18.346,62.125,46.625,33.939,78.602 C3596.276,1190.593,3574.261,1158.735,3573.556,1164.376z M3688.279,1062.638c42.209-41.425,73.837-24.289,67.964,36.825 c-4.528,47.122-51.998,71.126-81.774,41.35C3657.383,1129.422,3651.321,1098.909,3688.279,1062.638z M3886.38,1101.411 c-25.015-25.015,4.65-99.216,39.666-99.216c20.816,0,45.515,17.892,51.466,37.281 C3994.106,1093.548,3925.287,1140.319,3886.38,1101.411L3886.38,1101.411z M3400.506,1074.366 c-33.594-13.597-41.73-74.093-12.504-92.986c47.323-30.591,109.854,5.394,93.816,53.989 C3463.999,1089.361,3400.506,1081.211,3400.506,1074.366z M3619.129,1064.419c-40.592-12.454-53.915-30.738-44.251-60.725 c5.405-16.771,10.845-16.881,32.788-0.658c14.285,10.562,21.942,12.082,43.232,8.585c42.013-6.901,48.515-6.803,51.151,0.768 c2.454,7.047-44.172,62.371-51.528,61.141C3649.917,1073.429,3619.129,1065.024,3619.129,1064.419z M3824.887,1036.975 c-23.002-23.002,16.056-42.657,22.365-81.416c7.018-43.121,38.407-40.985,54.197,3.688l8.8,24.897 C3885.26,1009.513,3838.636,1064.472,3824.887,1036.975z M155.693,1015.687c15.356-48.539,80.277-155.401,42.849-275.843 c-12.663-40.75,27.021,1.841,57.156,61.343c41.86,82.653,22.265-11.551-21.961-63.116 c-259.412-302.469-69.385-859.836,0.032-727.393c50.41,96.18,283.73,305.36,371.246,369.892 c25.368,18.706,27.609,27.467,10.897,42.591c-17.414,15.759-40.197,7.751-89.247-31.37 C326.74,232.34,302.404,185.771,215.236,201.196c-14.017,2.48-25.486,2.174-25.486-0.68c0-18.902,40.758-49.834,65.665-49.834 c6.76,0,12.291-2.698,12.291-5.997c0-20.646-73.109,9.543-91.656,37.848c-93.449,142.621-17.194,666.337,295.728,400.23 c128.492-109.268,264.956-208.03,413.144-284.575c153.52-79.299,312.729-147.461,482.049-184.444 c225.181-49.184,457.376-62.01,686.855-38.49c58.957,6.043,118.054,13.452,176.47,22.779 c98.263,15.705,200.245,25.341,261.667,113.483c12.994,18.646,23.533,39.65,27.735,62.134c11.813,63.208,2.9,77.418-22.922,36.546 C2351.359,80.02,1748.83,105.762,1477.584,153.279c-174.203,30.517-428.068,118.602-598.229,207.572 C797.421,403.69,654.23,505.163,561.536,586.075c-261.362,228.139-321.863,404.13-341.224,404.13 C206.996,990.205,145.725,1047.185,155.693,1015.687z M3731.01,941.163c16.127-47.331,57.95-74.259,83.019-53.454 c54.379,45.131-12.945,145.67-72.794,108.709C3731.024,982.803,3712.375,995.856,3731.01,941.163z M3945.719,988.287 c-34.697-11.434-49.186-63.516-24.2-86.989c43.801-41.148,112.659,40.321,70.074,82.907 C3978.552,997.247,3974.107,997.642,3945.719,988.287L3945.719,988.287z M3618.305,983.725 c-22.379-13.035-39.032-65.202-17.99-56.358c29.431,12.371,36.432,10.506,53.582-14.269c19.114-27.613,23.45-28.962,42.364-13.184 C3742,938.072,3670.992,1014.412,3618.305,983.725L3618.305,983.725z M3471.598,963.36c-34.859-15.157-29.677-72.039,8.742-95.969 c32.64-20.33,31.885-54.343-2.33-104.952c-42.723-63.193,27.411-101.01,43.181,59.031c3.294,33.433,6.983,44.393,18.232,54.173 C3596.12,924.941,3519.567,995.339,3471.598,963.36z M3346.96,958.973c-54.58-31.302-24.218-118.686,41.238-118.686 c61.8,0,69.658,104.964,8.908,118.987C3361.057,967.595,3362.004,967.601,3346.96,958.973z M3693.338,869.395 c-45.126-33.649-50.353-83.479-7.776-74.128c42.492,9.333,63.554-39.192,90.219,4.542c16.065,26.35,15.324,30.685-10.043,58.764 C3732.388,895.49,3729.01,895.994,3693.338,869.395L3693.338,869.395z M3841.678,872.032 c-32.394-11.842-41.483-35.099-27.136-69.436c28.087-67.221,103.462-57.021,97.637,13.213 C3905.423,897.286,3842.095,871.406,3841.678,872.032z M3413.061,826.795c-37.103-111.999-21.515-165.135,54.986-187.443 c88.001-25.662,119.117-12.18,47.176,20.44c-50.454,22.877-76.525,67.866-77.634,133.972 C3436.935,832.7,3421.779,853.111,3413.061,826.795L3413.061,826.795z M1550.981,791.32c-101.058-6.088-106.516-7.256-95.559-20.46 c18.811-22.666,35.088-25.022,158.523-22.953c348.94,5.85,655.236-99.591,870.573-299.691 c83.378-77.479,103.628-211.947,38.024-252.492c-3.361-2.077-6.111-9.315-6.111-16.083c0-36.931,233.245,56.776,464.737,186.71 c131.315,73.706,248.522,174.638,385.884,237.011c13.875,6.3,33.648,8.372,45.632,17.135 c24.833,18.158-23.334,10.108-34.907,50.463c-6.167,21.501-13.238,24.929-18.403,8.919c-1.862-5.772-14.87-23.137-28.906-38.589 c-40.971-45.104-92.406-71.714-163.222-120.781c-165.827-114.898-383.547-138.139-520.37-55.548 C2278.098,687.568,2111.538,804.06,1550.981,791.32z M2616.72,413.582c29.573-13.032,48.286-110.979,28.51-149.222 c-12.846-24.842-13.638-23.033-10.305,23.549c3.784,52.882-12.208,90.305-61.203,143.225 C2491.071,520.407,2611.11,416.055,2616.72,413.582z M2718.987,394.959c32.716-34.825,35.426-80.837,6.677-113.373 c-10.779-12.199-11.779-12.451-7.875-1.979c10.847,29.098,9.314,56.198-5.213,92.163 C2685.76,438.158,2718.987,391.764,2718.987,394.959z M2824.775,314.387c-10.1-3.307,2.205,26.151-8.142,45.485 c-7.662,14.316,0.391,17.222,11.3,4.079C2835.126,360.353,2835.465,317.888,2824.775,314.387z M3523.585,773.811 c-8.868-16.57-10.866-15.894,54.244-18.337c47.59-1.786,56.968-0.657,56.968,6.858 C3634.797,785.541,3535.356,795.806,3523.585,773.811L3523.585,773.811z M3785.627,769.34 c-20.238-22.363-2.896-109.029,21.783-108.859c40.284,0.279,53.833,61.995,21.655,98.643 C3807.999,783.117,3799.833,785.038,3785.627,769.34L3785.627,769.34z M3662.241,752.804 c-25.875-21.772-24.827-43.596,3.276-68.271c50.9-44.691,123.318,19.942,73.982,66.028 C3696.1,791.102,3665.024,752.406,3662.241,752.804z M3898.236,753.274c-43.004-18.881-51.638-82.03-13.749-100.556 c37.849-18.507,71.127,8.889,71.127,58.555C3955.614,786.974,3898.236,750.602,3898.236,753.274z M1209.172,734.475 c-170.077-53.789-334.628-116.776-488.048-213.625c42.08-36.196,29.92-43.791,185.221,45.054 c105.714,60.477,308.466,128.95,371.789,139.211c49.163,7.966,57.084,16.339,31.482,33.273 C1266.329,767.019,1222.83,732.768,1209.172,734.475z M3601.854,680.134c-41.482-29.055-36.924-88.429,8.951-116.594 c56.845-34.899,62.942,23.779,69.998,80.257C3634.159,682.609,3622.597,694.662,3601.854,680.134L3601.854,680.134z M3736.731,652.079c-25.653-11.18-31.284-20.316-35.996-58.393c-9.194-74.307,89.386-73.686,101.944,0.642 C3810.551,640.917,3777.51,669.851,3736.731,652.079L3736.731,652.079z M1045.76,610.169 c-79.576-25.571,227.472-72.422,326.936-90.994c150.072-28.021,187.352-2.6,112.685,76.838l-34.457,36.659 c-43.21-20.504-73.124-44.028-316.134,6.583C1117.666,642.82,1066.012,616.676,1045.76,610.169z M1005.738,479.52 c35.718-76.258,134.825-44.059,107.313,34.865c-11.318,32.465-55.16,46.477-97.286,31.092 C1014.965,545.577,978.447,537.788,1005.738,479.52z M895.283,497.98c-16.468-10.009-28.427-43.413-23.839-66.587 c4.623-23.351,21.581-55.715,29.414-56.136c3.015-0.162,11.595-2.381,19.068-4.931c31.833-10.864,79.384,26.631,79.345,62.565 C999.228,472.71,927.537,517.583,895.283,497.98z M1022.329,404.035c-76.12-90.773,31.163-89.269,40.333-104.106 c12.439-20.126,52.626,29.105,58.103,71.179C1125.994,411.286,1049.786,436.778,1022.329,404.035L1022.329,404.035z"/> </g> </svg>